<svg id="visual" viewBox="0 0 1920 1080" width="1920" height="1080" xmlns="http://www.w3.org/2000/svg" xmlns:xlink="http://www.w3.org/1999/xlink" version="1.1"><rect x="0" y="0" width="1920" height="1080" fill="#fff4e5"></rect><defs><linearGradient id="grad1_0" x1="43.8%" y1="0%" x2="100%" y2="100%"><stop offset="14.444444444444446%" stop-color="#fff4e5" stop-opacity="1"></stop><stop offset="85.55555555555554%" stop-color="#fff4e5" stop-opacity="1"></stop></linearGradient></defs><defs><linearGradient id="grad2_0" x1="0%" y1="0%" x2="56.3%" y2="100%"><stop offset="14.444444444444446%" stop-color="#fff4e5" stop-opacity="1"></stop><stop offset="85.55555555555554%" stop-color="#fff4e5" stop-opacity="1"></stop></linearGradient></defs><g transform="translate(1920, 0)"><path d="M0 656C-59.8 639.5 -119.5 623 -203.6 626.7C-287.8 630.5 -396.3 654.5 -441.4 607.6C-486.6 560.6 -468.4 442.6 -515.3 374.4C-562.2 306.2 -674.2 287.7 -719 233.6C-763.8 179.5 -741.4 89.8 -719 0L0 0Z" fill="#ffd280"></path></g><g transform="translate(0, 1080)"><path d="M0 -613C78.6 -657.8 157.2 -702.7 223.4 -687.6C289.7 -672.5 343.6 -597.6 390.3 -537.2C436.9 -476.8 476.3 -431 527.5 -383.2C578.7 -335.5 641.8 -285.8 681.9 -221.6C722 -157.4 739 -78.7 756 0L0 0Z" fill="#ffd280"></path></g></svg>