<svg id="visual" viewBox="0 0 1920 1080" width="1920" height="1080" xmlns="http://www.w3.org/2000/svg" xmlns:xlink="http://www.w3.org/1999/xlink" version="1.1"><rect x="0" y="0" width="1920" height="1080" fill="#fff4e5"></rect><defs><linearGradient id="grad1_0" x1="43.8%" y1="0%" x2="100%" y2="100%"><stop offset="14.444444444444446%" stop-color="#fff4e5" stop-opacity="1"></stop><stop offset="85.55555555555554%" stop-color="#fff4e5" stop-opacity="1"></stop></linearGradient></defs><defs><linearGradient id="grad2_0" x1="0%" y1="0%" x2="56.3%" y2="100%"><stop offset="14.444444444444446%" stop-color="#fff4e5" stop-opacity="1"></stop><stop offset="85.55555555555554%" stop-color="#fff4e5" stop-opacity="1"></stop></linearGradient></defs><g transform="translate(1920, 0)"><path d="M0 581C-19.1 533.4 -38.1 485.8 -59.1 486.4C-80 487.1 -102.8 536 -151 612.7C-199.2 689.3 -273 793.7 -287.2 757.4C-301.5 721 -256.4 543.9 -240.7 458.7C-225.1 373.5 -239 380.2 -270.4 391.7C-301.8 403.3 -350.7 419.6 -352.8 398.2C-354.8 376.8 -310 317.7 -387 342.8C-463.9 368 -662.6 477.3 -646.9 446.5C-631.2 415.7 -401.1 244.6 -371.9 195.2C-342.7 145.7 -514.4 217.9 -622.7 236.2C-731 254.4 -776 218.7 -710.7 175.2C-645.5 131.6 -470.1 80.3 -410 49.8C-349.8 19.3 -404.9 9.6 -460 0L0 0Z" fill="#6c9da7"></path></g><g transform="translate(0, 1080)"><path d="M0 -625C39.4 -735.3 78.7 -845.7 97 -799.1C115.3 -752.6 112.6 -549.2 111.5 -452.5C110.5 -355.7 111.1 -365.5 175.9 -463.8C240.7 -562 369.7 -748.6 376.4 -717.2C383.2 -685.8 267.7 -436.4 234.6 -339.9C201.5 -243.4 250.8 -299.8 289.1 -326.4C327.5 -352.9 355 -349.6 399.7 -354.1C444.5 -358.6 506.5 -371 491.3 -339.1C476.2 -307.3 383.8 -231.3 414.4 -217.5C445 -203.7 598.5 -252 660.1 -250.4C721.7 -248.7 691.4 -197 634 -156.3C576.7 -115.5 492.3 -85.7 506.3 -61.5C520.3 -37.2 632.6 -18.6 745 0L0 0Z" fill="#6c9da7"></path></g></svg>