<svg id="visual" viewBox="0 0 1920 1080" width="1920" height="1080" xmlns="http://www.w3.org/2000/svg" xmlns:xlink="http://www.w3.org/1999/xlink" version="1.1"><rect x="0" y="0" width="1920" height="1080" fill="#fff4e5"></rect><defs><linearGradient id="grad1_0" x1="43.8%" y1="0%" x2="100%" y2="100%"><stop offset="14.444444444444446%" stop-color="#fff4e5" stop-opacity="1"></stop><stop offset="85.55555555555554%" stop-color="#fff4e5" stop-opacity="1"></stop></linearGradient></defs><defs><linearGradient id="grad2_0" x1="0%" y1="0%" x2="56.3%" y2="100%"><stop offset="14.444444444444446%" stop-color="#fff4e5" stop-opacity="1"></stop><stop offset="85.55555555555554%" stop-color="#fff4e5" stop-opacity="1"></stop></linearGradient></defs><g transform="translate(1920, 0)"><path d="M0 1026C-208.8 986.6 -417.6 947.2 -465 805.4C-512.4 663.6 -398.3 419.3 -464.2 268C-530.1 116.7 -776.1 58.3 -1022 0L0 0Z" fill="#e15b4c"></path></g><g transform="translate(0, 1080)"><path d="M0 -634C47.1 -559.3 94.2 -484.7 283 -490.2C471.8 -495.7 802.4 -581.3 888.5 -513C974.7 -444.7 816.3 -222.3 658 0L0 0Z" fill="#e15b4c"></path></g></svg>